Coordinates
version=1
nRows=14
nColumns=36
inDegrees=yes

Units are S.I. units (second, meters, Newtons, ...)
If the header above contains a line with 'inDegrees', this indicates whether rotational values are in degrees (yes) or radians (no).

endheader
time	pelvis_tilt	pelvis_list	pelvis_rotation	pelvis_tx	pelvis_ty	pelvis_tz	hip_flexion_r	hip_adduction_r	hip_rotation_r	knee_angle_r	knee_angle_r_beta	ankle_angle_r	subtalar_angle_r	mtp_angle_r	hip_flexion_l	hip_adduction_l	hip_rotation_l	knee_angle_l	knee_angle_l_beta	ankle_angle_l	subtalar_angle_l	mtp_angle_l	lumbar_extension	lumbar_bending	lumbar_rotation	arm_flex_r	arm_add_r	arm_rot_r	elbow_flex_r	pro_sup_r	arm_flex_l	arm_add_l	arm_rot_l	elbow_flex_l	pro_sup_l
      0.00000000	     -0.70471970	     -1.66121378	     14.31649072	     -0.25165603	      0.93200331	     -0.20817394	     28.25428540	     -1.63114880	      7.09242708	      1.34558244	      0.02348484	      8.44286650	      4.73672022	     -6.70322920	    -14.40603244	     -3.65712221	      6.04722240	     13.00592642	      0.22699624	     21.43780556	     13.46540422	     -6.70322920	     -4.58650941	     -0.78061807	    -13.94257015	    -13.31696488	     -7.89145100	      0.01300330	     25.12247899	    109.56846281	     11.81782595	    -15.81542550	     32.23152801	     33.16377904	    110.83574357
      0.01000000	     -0.69536308	     -1.82677520	     14.45491866	     -0.23761343	      0.93092111	     -0.20712274	     27.97875108	     -1.33956840	      6.41501771	      2.02853276	      0.03540458	      7.98173293	      3.91608660	     -6.71372652	    -14.74699109	     -4.13154317	      5.87677991	     13.84646239	      0.24166636	     20.54625252	     13.18812965	     -6.71372652	     -4.52556194	     -0.53563048	    -14.16038563	    -13.66771561	     -7.93335562	      0.00922347	     24.41776919	    109.55643619	     11.93851059	    -15.51079725	     32.31327150	     33.24561945	    110.84717034
      0.02000000	     -0.74572478	     -1.84970729	     14.48356939	     -0.22324878	      0.92978245	     -0.20601611	     27.61730316	     -1.17891534	      6.38898274	      2.50983499	      0.04380488	      7.76930324	      3.78083185	     -6.71494914	    -15.26636414	     -4.39294125	      5.96868873	     14.33783167	      0.25024237	     20.23362693	     13.15609017	     -6.71494914	     -4.32525689	     -0.48232033	    -14.35586053	    -14.19733785	     -7.97628061	      0.00475195	     24.08564665	    109.54358913	     11.86534233	    -15.22262625	     32.37207512	     33.34585566	    110.86168829
      0.03000000	     -0.67966773	     -2.20223398	     14.61372009	     -0.20957066	      0.92878402	     -0.20473752	     27.51872040	     -0.65287717	      5.28870671	      3.49541395	      0.06100648	      6.75807468	      2.83975770	     -6.72011744	    -15.32107727	     -5.07066512	      5.76278758	     15.69522588	      0.27393337	     18.72386902	     12.73723921	     -6.72011744	     -4.50804995	      0.04509987	    -14.33303541	    -14.38754395	     -7.99633859	      0.05420461	     23.25580654	    109.52923570	     12.25049009	    -14.82386545	     32.42529492	     33.54563003	    110.88018951
      0.04000000	     -0.72622465	     -2.48704872	     14.67297138	     -0.19529007	      0.92788156	     -0.20340272	     27.31762812	     -0.19981187	      4.43227925	      4.05879201	      0.07083928	      5.31018795	      2.16697265	     -6.72592759	    -15.36073366	     -5.62827826	      5.48777152	     16.86803532	      0.29440275	     17.33030931	     12.15031677	     -6.72592759	     -4.36127113	      0.41758645	    -14.48790329	    -14.62623469	     -8.03737342	      0.19577108	     22.48415132	    109.52916495	     12.29208888	    -14.49609359	     32.55485572	     33.56107589	    110.89301414
      0.05000000	     -0.89440637	     -2.72349243	     14.68737920	     -0.18088654	      0.92711674	     -0.20184425	     27.04684530	      0.25762994	      4.38326379	      4.18284202	      0.07300437	      2.45407229	     -0.08887517	     -6.76390900	    -15.31335058	     -5.99118585	      5.78960791	     17.93058842	      0.31294780	     15.37208774	     10.12414024	     -6.76390900	     -3.98144014	      0.60611703	    -14.74476976	    -14.60948128	     -8.20058424	      1.96760548	     21.08128074	    109.68880769	     12.21223168	    -14.25191418	     32.90409772	     33.28244905	    110.85940415
      0.06000000	     -0.86024065	     -3.11030180	     14.64954062	     -0.16639565	      0.92665874	     -0.20033061	     26.75762748	      0.88538640	      3.50191428	      4.67806794	      0.08164769	      1.00361517	     -0.12904728	     -6.77282047	    -15.16123817	     -6.65185528	      5.24806624	     19.49656382	      0.34027923	     13.82524930	      9.69049208	     -6.77282047	     -3.93192667	      1.15987196	    -14.74491252	    -14.86541796	     -8.34334739	      2.27192082	     20.61444553	    109.66678107	     12.14672175	    -13.86653733	     32.92905785	     33.40197877	    110.85635027
      0.07000000	     -0.82121313	     -3.57039083	     14.60613794	     -0.15182216	      0.92642111	     -0.19872279	     26.47664634	      1.60549185	      2.74255294	      5.19309165	      0.09063655	     -0.71071022	     -0.27178451	     -6.78469577	    -14.88948152	     -7.37064751	      4.84203248	     21.18479207	      0.36974437	     11.99150120	      8.97296085	     -6.78469577	     -3.83464533	      1.77782789	    -14.77628658	    -15.01780068	     -8.47913780	      2.81197516	     20.06786243	    109.64608712	     12.00283080	    -13.45080957	     32.91861302	     33.39116240	    110.83028273
      0.08000000	     -0.66629488	     -4.03396724	     14.54329777	     -0.13732399	      0.92648008	     -0.19699973	     26.10982808	      2.39561431	      2.09137320	      5.82987018	      0.10175043	     -1.98693590	     -0.46714406	     -6.79283318	    -14.47373510	     -8.14136212	      4.21647756	     23.29024134	      0.40649139	      9.95453716	      8.23688777	     -6.79283318	     -3.92717589	      2.42317191	    -14.64886102	    -15.20268494	     -8.58456721	      3.25798970	     19.62072421	    109.62853883	     11.97313171	    -13.08896620	     32.86404525	     33.45104273	    110.80912840
      0.09000000	     -0.53907717	     -4.60406345	     14.43054548	     -0.12276478	      0.92667712	     -0.19513165	     25.84433586	      3.32229949	      1.55943801	      6.60942820	      0.11535628	     -3.28388621	     -0.84255771	     -6.80369696	    -13.85794035	     -9.02199422	      3.56619746	     25.56462025	      0.44618680	      7.39788284	      7.24483966	     -6.80369696	     -3.91918658	      3.16129689	    -14.54186338	    -15.32517841	     -8.74181729	      3.92084180	     19.16818902	    109.60470941	     11.81417525	    -12.74791480	     32.76394994	     33.42246349	    110.76786634
      0.10000000	     -0.39798299	     -5.03127785	     14.32214882	     -0.10850868	      0.92713404	     -0.19345211	     25.54522912	      4.13287316	      1.62084239	      7.50130661	      0.13092250	     -4.45812262	     -1.91494906	     -6.83755296	    -13.09715291	     -9.65404913	      3.29054499	     28.04765718	      0.48952397	      4.16245586	      5.25104004	     -6.83755296	     -4.01032277	      3.76898898	    -14.45667062	    -15.20731661	     -9.01580922	      5.84722815	     18.37604451	    109.46357881	     11.57983104	    -12.32068736	     32.38065004	     33.52152280	    110.66844474
      0.11000000	     -0.10336918	     -5.67555384	     14.17094107	     -0.09423400	      0.92772951	     -0.19145890	     25.19604196	      5.23899262	      1.36558006	      8.55626097	      0.14933493	     -4.74801408	     -2.25455935	     -6.84737481	    -12.20810740	    -10.76426793	      2.34203755	     30.91165369	      0.53951013	      1.30239560	      4.71897229	     -6.84737481	     -4.23900094	      4.63107242	    -14.15621435	    -15.24569408	     -9.11452147	      6.29661550	     18.11695195	    109.38433504	     11.44753908	    -11.93028980	     32.29281781	     33.66349052	    110.66110848
      0.12000000	      0.15038159	     -6.22580100	     14.01461129	     -0.08029699	      0.92843785	     -0.18944281	     24.88898402	      6.26613745	      1.37507544	      9.70404219	      0.16936749	     -4.86929935	     -2.81000331	     -6.85795067	    -11.09681016	    -11.71212269	      1.74387712	     33.98832516	      0.59320818	     -1.99946298	      3.62045419	     -6.85795067	     -4.49005824	      5.38730533	    -13.78286985	    -15.27691371	     -9.20616105	      6.80673056	     17.87291117	    109.29985686	     11.34543163	    -11.59945750	     32.13876146	     33.75142323	    110.64361191
      0.13000000	      0.33881704	     -6.61946345	     13.80315367	     -0.06682733	      0.92927266	     -0.18744060	     24.62182452	      7.16850823	      1.69121633	     10.84898045	      0.18935043	     -4.90777575	     -3.76011258	     -6.88440198	     -9.83505916	    -12.30280699	      1.63742506	     37.09046854	      0.64735080	     -5.97533185	      1.11579398	     -6.88440198	     -4.77006690	      5.90803601	    -13.37464950	    -15.11956499	     -9.30944143	      7.93546427	     17.44697997	    109.06704220	     11.22775864	    -11.29140671	     31.78522395	     33.91925292	    110.61607137
